<mxfile host="app.diagrams.net" modified="2024-05-06T04:20:16.454Z" agent="Mozilla/5.0 (Windows NT 10.0; Win64; x64) AppleWebKit/537.36 (KHTML, like Gecko) Chrome/124.0.0.0 Safari/537.36 Edg/124.0.0.0" version="24.3.1" etag="hOBGI7ES6R8SU9A5iAS0" type="github">
  <diagram name="第 1 页" id="nhtdy-Qd3ud8o74x0lJr">
    <mxGraphModel>
      <root>
        <mxCell id="0" />
        <mxCell id="1" parent="0" />
      </root>
    </mxGraphModel>
  </diagram>
</mxfile>
